<?xml version="1.0" encoding="UTF-8"?>
<svg id="Layer_2" data-name="Layer 2" xmlns="http://www.w3.org/2000/svg" viewBox="0 0 613.58 545.17">
  <defs>
    <style>
      .cls-1, .cls-2 {
        stroke-width: 0px;
      }

      .cls-2 {
        fill: #f29c13;
      }
    </style>
  </defs>
  <g id="Layer_1-2" data-name="Layer 1">
    <rect class="cls-2" width="613.58" height="545.17" rx="138.83" ry="138.83"/>
    <g>
      <path class="cls-1" d="M368.19,332.65c21.98,20.26,43.97,40.52,65.95,60.78,27.99.01,55.97.03,83.96.04l-111.38-102.64-38.54,41.82Z"/>
      <path class="cls-1" d="M441.65,151.97l-132.2,147.96.02.02-.17.19-15.7-123.19c-1.98-15.58-16.22-26.6-31.8-24.61h0c-.65.08-1.29.19-1.92.32-8.13.42-16.02,4.3-21.29,11.32l-86.24,114.85v-39.53h-56.87v120.62c0,15.7,12.73,28.43,28.43,28.43h0c.48,0,.96-.01,1.44-.04,9.19.53,18.45-3.4,24.39-11.31l95.77-127.55,15.18,119.17c1.98,15.58,16.22,26.6,31.8,24.61h0c4.37-.56,8.38-2.08,11.84-4.32,2.59-1.48,4.99-3.39,7.08-5.74l206.68-231.48-76.45.27Z"/>
    </g>
  </g>
</svg>