<svg xmlns="http://www.w3.org/2000/svg" viewBox="0 0 500 500"><defs><style>.cls-1{fill:#f39c12;}.cls-2{fill:#101010;}</style></defs><g id="Layer_2" data-name="Layer 2"><g id="Layer_1-2" data-name="Layer 1"><rect class="cls-1" width="500" height="500" rx="83.43"/><circle class="cls-2" cx="250" cy="250" r="230.89"/><path class="cls-1" d="M370.19,234A108.12,108.12,0,0,0,396,225c12.65-6.31,28.32-14.13,37.42-32.07,11.32-22.33,4.37-44.37,3.34-47.45-1.68-5-6.52-19.6-20.49-28.92-23.93-16-54.38-3.11-59-1.14-19.65,8.3-30.07,23-50.12,52.11a416.45,416.45,0,0,0-33.3,57.78A99.86,99.86,0,0,0,249.78,181c-24.39-25.79-55.14-29.59-65.41-30.73-9.66-1.06-42.18-3.37-73.84,17.84-31,20.82-41.18,50.81-44.6,61.45-12.5,38.93-1.35,71.82,2.48,81.77,6.32,16.44,18.4,47.85,51,60,31.72,11.77,61.2-2.72,67.4-5.94a96.72,96.72,0,0,1-63.45-16.71A96.77,96.77,0,0,1,90,303.21c-11.61-33.67.07-62.44,3.34-70.16,3.73-8.8,13.37-30.67,37.42-44.77,23.56-13.82,46.6-11.78,58.8-10.69,15.31,1.36,34.06,3,49.83,17.79,16.79,15.72,19.68,36.45,20.35,43.47a46.68,46.68,0,0,0-9.45,5.09c-4.61,3.23-13.19,9.18-15.86,19.83-2.81,11.19,2.43,20.7,4,23.29-.13-3.16-.8-26.56,13.38-34.54a20,20,0,0,1,4.83-1.92,319.59,319.59,0,0,1-8.47,36.08c-6.1,20.59-19.94,59.53-27.06,58.46-4.8-.72-1.58-27.82-7.46-77.41-1.36-11.42-7.17-63.6-16.85-63.93-1.93-.06-2.41,2-8.92,9.42-10.07,11.52-19.11,18.31-18.34,19.33s7.64-5.57,12.89-3.47c5.81,2.32,6.18,13.93,6.49,21.34.72,17,4,33.8,4,50.78,0,8.95,0,69.72,17.38,74.84,14.61,4.3,39.24-31.3,50.78-58.13a153.6,153.6,0,0,0,11.36-42.77,355.14,355.14,0,0,0,8.68,54.13c5.18,21.48,11.78,48.93,21.5,49.28,5.71.21,12-10.72,24.61-32.58,8.4-14.57,12.46-24.09,18.16-23.83,4,.18,7.09,5.15,9.05,9.29a29.48,29.48,0,0,1,1.92,15.1c-1.74,11.4-10,14.18-10.31,24a21.31,21.31,0,0,0,9.36,17.71c8.69,5.75,18.88,2,22.26.81,12.18-4.43,17.23-15.59,18.33-18.19,7.84-18.45-3-39.28-6-38.87-3.44.49,3.81,30.11-10,38.76-5.31,3.31-13.24,3.25-15.37,0-4.21-6.43,17.51-20.32,14-34.08-3.13-12.36-24.41-16-23.61-18.92,1-3.82,34.69,10.58,55-3.8,11.56-8.18,19.58-26.22,13.36-40.09-5.18-11.55-19.27-18.11-31.41-17.38-29,1.76-47.27,45.26-50.05,43.51-1.71-1.07,6.43-16.77,17.84-42.12C364.23,248,367.77,239.74,370.19,234Zm-13.36,59.3c10-9.42,31.19-24.36,41.29-17.51,4.22,2.85,5.94,9.12,5,13.87-2.53,12.25-23.34,16.18-30.4,17.51a70.57,70.57,0,0,1-27.42-.33A80.67,80.67,0,0,1,356.83,293.34Zm34-168.7c.89,0,16.89.9,24.82,12,13.39,18.74-3.1,57-28.06,74.6a65.13,65.13,0,0,1-10.72,6.14,221.82,221.82,0,0,0,8.56-26.44c1.63-7,2.26-12.67-.32-14.39-3.15-2.11-8.19,3.93-20.32,9.41-13.54,6.13-24.94,6.58-24.77,8.43s9.93-.33,15.36,5,4.2,15.62,1.65,24.94c-6.77,1.75-13.93,3.38-21.47,4.8a331.19,331.19,0,0,1-43,5.23A362.48,362.48,0,0,1,317,191.46C339.6,157.41,362.17,123.48,390.79,124.64ZM328.13,302.55c-14,32.82-18.83,39.2-22.2,38.58-7-1.28-2.68-31.75-17.49-80.34-1.54-5-2.94-9.14-3.89-11.87a170.69,170.69,0,0,0,55.79-8.68c4.83-1.62,9.37-3.38,13.62-5.24C348.3,251.68,339.85,275,328.13,302.55Z"/></g></g></svg>